<svg xmlns="http://www.w3.org/2000/svg" width="1920" height="1080"><path d="M1171,-244L1356,-211L1619,-240Z" fill="#9ecd94" stroke="#9ecd94" stroke-width="1.51"/><path d="M1075,-262L1171,-244L1619,-240Z" fill="#a3d39a" stroke="#a3d39a" stroke-width="1.51"/><path d="M1822,1259L1683,1280L2081,1237Z" fill="#005f33" stroke="#005f33" stroke-width="1.51"/><path d="M1878,1236L1822,1259L2081,1237Z" fill="#005c32" stroke="#005c32" stroke-width="1.51"/><path d="M2061,960L1959,1145L2083,1193Z" fill="#056134" stroke="#056134" stroke-width="1.51"/><path d="M1947,-168L1948,-96L2100,-24Z" fill="#83a773" stroke="#83a773" stroke-width="1.51"/><path d="M2061,960L2083,1193L2101,862Z" fill="#0e6536" stroke="#0e6536" stroke-width="1.51"/><path d="M2095,75L1967,265L2112,254Z" fill="#6b9a62" stroke="#6b9a62" stroke-width="1.51"/><path d="M2100,-24L2095,75L2112,254Z" fill="#739b66" stroke="#739b66" stroke-width="1.51"/><path d="M1075,-262L1619,-240L2131,-255Z" fill="#94be8c" stroke="#94be8c" stroke-width="1.51"/><path d="M1619,-240L1802,-220L2131,-255Z" fill="#8ab285" stroke="#8ab285" stroke-width="1.51"/><path d="M1802,-220L1947,-168L2131,-255Z" fill="#86ab7f" stroke="#86ab7f" stroke-width="1.51"/><path d="M1947,-168L2100,-24L2131,-255Z" fill="#82a376" stroke="#82a376" stroke-width="1.51"/><path d="M2100,-24L2112,254L2131,-255Z" fill="#7a9d6a" stroke="#7a9d6a" stroke-width="1.51"/><path d="M1943,669L2101,862L2133,682Z" fill="#247d45" stroke="#247d45" stroke-width="1.51"/><path d="M2101,862L2083,1193L2133,682Z" fill="#156a3a" stroke="#156a3a" stroke-width="1.51"/><path d="M2083,1193L2081,1237L2133,682Z" fill="#0b6235" stroke="#0b6235" stroke-width="1.51"/><path d="M2076,394L1940,493L2138,506Z" fill="#4b8d56" stroke="#4b8d56" stroke-width="1.51"/><path d="M1943,669L2133,682L2138,506Z" fill="#36834c" stroke="#36834c" stroke-width="1.51"/><path d="M1940,493L1943,669L2138,506Z" fill="#408c52" stroke="#408c52" stroke-width="1.51"/><path d="M2112,254L2076,394L2138,506Z" fill="#548e58" stroke="#548e58" stroke-width="1.51"/><path d="M2131,-255L2112,254L2138,506Z" fill="#6c9762" stroke="#6c9762" stroke-width="1.51"/><path d="M1967,265L2076,394L2112,254Z" fill="#5f965d" stroke="#5f965d" stroke-width="1.51"/><path d="M1978,959L1959,1145L2061,960Z" fill="#0d6937" stroke="#0d6937" stroke-width="1.51"/><path d="M1890,73L1967,265L2095,75Z" fill="#73a167" stroke="#73a167" stroke-width="1.51"/><path d="M1943,669L1892,866L2101,862Z" fill="#1f7d43" stroke="#1f7d43" stroke-width="1.51"/><path d="M1890,73L2095,75L2100,-24Z" fill="#79a26a" stroke="#79a26a" stroke-width="1.51"/><path d="M1948,-96L1890,73L2100,-24Z" fill="#7fa66e" stroke="#7fa66e" stroke-width="1.51"/><path d="M1978,959L2061,960L2101,862Z" fill="#156d3a" stroke="#156d3a" stroke-width="1.51"/><path d="M1892,866L1978,959L2101,862Z" fill="#18733d" stroke="#18733d" stroke-width="1.51"/><path d="M1959,1145L2081,1237L2083,1193Z" fill="#005a32" stroke="#005a32" stroke-width="1.51"/><path d="M1959,1145L1878,1236L2081,1237Z" fill="#005d33" stroke="#005d33" stroke-width="1.51"/><path d="M1967,265L1881,371L2076,394Z" fill="#5d995e" stroke="#5d995e" stroke-width="1.51"/><path d="M1881,371L1940,493L2076,394Z" fill="#54955a" stroke="#54955a" stroke-width="1.51"/><path d="M1779,112L1757,220L1890,73Z" fill="#79ac6b" stroke="#79ac6b" stroke-width="1.51"/><path d="M1815,705L1795,796L1892,866Z" fill="#238647" stroke="#238647" stroke-width="1.51"/><path d="M1940,493L1796,592L1943,669Z" fill="#3e9153" stroke="#3e9153" stroke-width="1.51"/><path d="M1815,705L1892,866L1943,669Z" fill="#258749" stroke="#258749" stroke-width="1.51"/><path d="M1766,1000L1774,1149L1959,1145Z" fill="#086d39" stroke="#086d39" stroke-width="1.51"/><path d="M1890,73L1757,220L1967,265Z" fill="#71a767" stroke="#71a767" stroke-width="1.51"/><path d="M1766,1000L1959,1145L1978,959Z" fill="#0c6e39" stroke="#0c6e39" stroke-width="1.51"/><path d="M1892,866L1766,1000L1978,959Z" fill="#15763d" stroke="#15763d" stroke-width="1.51"/><path d="M1757,220L1881,371L1967,265Z" fill="#66a263" stroke="#66a263" stroke-width="1.51"/><path d="M1736,-16L1890,73L1948,-96Z" fill="#82ae72" stroke="#82ae72" stroke-width="1.51"/><path d="M1774,1149L1878,1236L1959,1145Z" fill="#006636" stroke="#006636" stroke-width="1.51"/><path d="M1881,371L1791,418L1940,493Z" fill="#549c5c" stroke="#549c5c" stroke-width="1.51"/><path d="M1796,592L1815,705L1943,669Z" fill="#358f4f" stroke="#358f4f" stroke-width="1.51"/><path d="M1947,-168L1802,-220L1948,-96Z" fill="#87ae7c" stroke="#87ae7c" stroke-width="1.51"/><path d="M1802,-220L1736,-16L1948,-96Z" fill="#88b279" stroke="#88b279" stroke-width="1.51"/><path d="M1791,418L1796,592L1940,493Z" fill="#4b9959" stroke="#4b9959" stroke-width="1.51"/><path d="M472,-261L833,-222L1075,-262Z" fill="#cbe9b0" stroke="#cbe9b0" stroke-width="1.51"/><path d="M1683,-86L1736,-16L1802,-220Z" fill="#8cb67b" stroke="#8cb67b" stroke-width="1.51"/><path d="M1774,1149L1822,1259L1878,1236Z" fill="#026435" stroke="#026435" stroke-width="1.51"/><path d="M1757,220L1791,418L1881,371Z" fill="#63a462" stroke="#63a462" stroke-width="1.51"/><path d="M1736,-16L1779,112L1890,73Z" fill="#7faf6f" stroke="#7faf6f" stroke-width="1.51"/><path d="M1795,796L1766,1000L1892,866Z" fill="#1c7e42" stroke="#1c7e42" stroke-width="1.51"/><path d="M1757,220L1602,355L1791,418Z" fill="#67a864" stroke="#67a864" stroke-width="1.51"/><path d="M1657,798L1766,1000L1795,796Z" fill="#228345" stroke="#228345" stroke-width="1.51"/><path d="M1791,418L1591,592L1796,592Z" fill="#4b9d5a" stroke="#4b9d5a" stroke-width="1.51"/><path d="M1796,592L1654,732L1815,705Z" fill="#359250" stroke="#359250" stroke-width="1.51"/><path d="M1774,1149L1683,1280L1822,1259Z" fill="#066636" stroke="#066636" stroke-width="1.51"/><path d="M1510,1236L1352,1297L1683,1280Z" fill="#166f3b" stroke="#166f3b" stroke-width="1.51"/><path d="M1654,732L1795,796L1815,705Z" fill="#2b8e4c" stroke="#2b8e4c" stroke-width="1.51"/><path d="M1766,1000L1651,1118L1774,1149Z" fill="#10723c" stroke="#10723c" stroke-width="1.51"/><path d="M1602,355L1591,592L1791,418Z" fill="#58a460" stroke="#58a460" stroke-width="1.51"/><path d="M1654,732L1657,798L1795,796Z" fill="#2a8e4b" stroke="#2a8e4b" stroke-width="1.51"/><path d="M1591,592L1654,732L1796,592Z" fill="#3e9854" stroke="#3e9854" stroke-width="1.51"/><path d="M1619,-240L1683,-86L1802,-220Z" fill="#8fb983" stroke="#8fb983" stroke-width="1.51"/><path d="M1657,798L1595,1001L1766,1000Z" fill="#1f8041" stroke="#1f8041" stroke-width="1.51"/><path d="M1580,255L1602,355L1757,220Z" fill="#70ae69" stroke="#70ae69" stroke-width="1.51"/><path d="M1651,1118L1683,1280L1774,1149Z" fill="#0b6d39" stroke="#0b6d39" stroke-width="1.51"/><path d="M1606,121L1757,220L1779,112Z" fill="#7bb06d" stroke="#7bb06d" stroke-width="1.51"/><path d="M1736,-16L1606,121L1779,112Z" fill="#82b371" stroke="#82b371" stroke-width="1.51"/><path d="M1595,1001L1651,1118L1766,1000Z" fill="#18793e" stroke="#18793e" stroke-width="1.51"/><path d="M1606,121L1580,255L1757,220Z" fill="#78b26c" stroke="#78b26c" stroke-width="1.51"/><path d="M1683,-86L1606,121L1736,-16Z" fill="#88b775" stroke="#88b775" stroke-width="1.51"/><path d="M1487,544L1591,592L1602,355Z" fill="#56a75f" stroke="#56a75f" stroke-width="1.51"/><path d="M1356,-211L1481,-189L1619,-240Z" fill="#99c68d" stroke="#99c68d" stroke-width="1.51"/><path d="M1537,796L1595,1001L1657,798Z" fill="#288a48" stroke="#288a48" stroke-width="1.51"/><path d="M1651,1118L1534,1166L1683,1280Z" fill="#10703a" stroke="#10703a" stroke-width="1.51"/><path d="M1534,1166L1510,1236L1683,1280Z" fill="#136f3a" stroke="#136f3a" stroke-width="1.51"/><path d="M1535,100L1606,121L1683,-86Z" fill="#87b974" stroke="#87b974" stroke-width="1.51"/><path d="M1464,-46L1535,100L1683,-86Z" fill="#8dbd78" stroke="#8dbd78" stroke-width="1.51"/><path d="M1619,-240L1481,-189L1683,-86Z" fill="#93be85" stroke="#93be85" stroke-width="1.51"/><path d="M1481,-189L1464,-46L1683,-86Z" fill="#94c07f" stroke="#94c07f" stroke-width="1.51"/><path d="M1595,1001L1534,1166L1651,1118Z" fill="#17793e" stroke="#17793e" stroke-width="1.51"/><path d="M1591,592L1465,712L1654,732Z" fill="#3d9b54" stroke="#3d9b54" stroke-width="1.51"/><path d="M1465,712L1537,796L1654,732Z" fill="#339850" stroke="#339850" stroke-width="1.51"/><path d="M1654,732L1537,796L1657,798Z" fill="#2e924d" stroke="#2e924d" stroke-width="1.51"/><path d="M1520,343L1487,544L1602,355Z" fill="#63ad65" stroke="#63ad65" stroke-width="1.51"/><path d="M1537,796L1469,990L1595,1001Z" fill="#278745" stroke="#278745" stroke-width="1.51"/><path d="M1469,990L1534,1166L1595,1001Z" fill="#1e7e41" stroke="#1e7e41" stroke-width="1.51"/><path d="M1580,255L1532,295L1602,355Z" fill="#70b169" stroke="#70b169" stroke-width="1.51"/><path d="M1535,100L1580,255L1606,121Z" fill="#7fb76f" stroke="#7fb76f" stroke-width="1.51"/><path d="M1532,295L1520,343L1602,355Z" fill="#6db068" stroke="#6db068" stroke-width="1.51"/><path d="M1535,100L1532,295L1580,255Z" fill="#7ab66e" stroke="#7ab66e" stroke-width="1.51"/><path d="M1487,544L1465,712L1591,592Z" fill="#48a35b" stroke="#48a35b" stroke-width="1.51"/><path d="M1386,636L1465,712L1487,544Z" fill="#49a65d" stroke="#49a65d" stroke-width="1.51"/><path d="M1329,355L1487,544L1520,343Z" fill="#67b369" stroke="#67b369" stroke-width="1.51"/><path d="M1469,990L1283,1107L1534,1166Z" fill="#218344" stroke="#218344" stroke-width="1.51"/><path d="M1464,-46L1328,48L1535,100Z" fill="#90c47b" stroke="#90c47b" stroke-width="1.51"/><path d="M1328,244L1532,295L1535,100Z" fill="#7fbc71" stroke="#7fbc71" stroke-width="1.51"/><path d="M1328,48L1328,244L1535,100Z" fill="#8bc479" stroke="#8bc479" stroke-width="1.51"/><path d="M1332,832L1469,990L1537,796Z" fill="#2f934d" stroke="#2f934d" stroke-width="1.51"/><path d="M1465,712L1332,832L1537,796Z" fill="#369b53" stroke="#369b53" stroke-width="1.51"/><path d="M1283,1107L1510,1236L1534,1166Z" fill="#1b7c41" stroke="#1b7c41" stroke-width="1.51"/><path d="M1328,244L1520,343L1532,295Z" fill="#76b96e" stroke="#76b96e" stroke-width="1.51"/><path d="M1329,355L1296,532L1487,544Z" fill="#62b469" stroke="#62b469" stroke-width="1.51"/><path d="M1283,1107L1352,1297L1510,1236Z" fill="#1e7c42" stroke="#1e7c42" stroke-width="1.51"/><path d="M1328,244L1329,355L1520,343Z" fill="#76bc70" stroke="#76bc70" stroke-width="1.51"/><path d="M1356,-211L1304,-80L1464,-46Z" fill="#9ccc88" stroke="#9ccc88" stroke-width="1.51"/><path d="M1303,975L1283,1107L1469,990Z" fill="#298c4a" stroke="#298c4a" stroke-width="1.51"/><path d="M1332,832L1303,975L1469,990Z" fill="#2e924c" stroke="#2e924c" stroke-width="1.51"/><path d="M1356,-211L1464,-46L1481,-189Z" fill="#9ac889" stroke="#9ac889" stroke-width="1.51"/><path d="M1296,532L1386,636L1487,544Z" fill="#54ae63" stroke="#54ae63" stroke-width="1.51"/><path d="M1304,-80L1328,48L1464,-46Z" fill="#98cb82" stroke="#98cb82" stroke-width="1.51"/><path d="M1386,636L1332,832L1465,712Z" fill="#3ea358" stroke="#3ea358" stroke-width="1.51"/><path d="M1185,92L1213,233L1328,244Z" fill="#8dcc7d" stroke="#8dcc7d" stroke-width="1.51"/><path d="M1185,92L1328,244L1328,48Z" fill="#91cc7e" stroke="#91cc7e" stroke-width="1.51"/><path d="M1201,1237L1010,1316L1352,1297Z" fill="#2b8149" stroke="#2b8149" stroke-width="1.51"/><path d="M1283,1107L1234,1161L1352,1297Z" fill="#238447" stroke="#238447" stroke-width="1.51"/><path d="M1214,712L1332,832L1386,636Z" fill="#42a95c" stroke="#42a95c" stroke-width="1.51"/><path d="M1296,532L1214,712L1386,636Z" fill="#50b063" stroke="#50b063" stroke-width="1.51"/><path d="M1184,424L1197,499L1296,532Z" fill="#69bd6f" stroke="#69bd6f" stroke-width="1.51"/><path d="M1184,424L1296,532L1329,355Z" fill="#6cbe6f" stroke="#6cbe6f" stroke-width="1.51"/><path d="M1217,890L1303,975L1332,832Z" fill="#359b52" stroke="#359b52" stroke-width="1.51"/><path d="M1234,1161L1201,1237L1352,1297Z" fill="#248247" stroke="#248247" stroke-width="1.51"/><path d="M1227,-94L1304,-80L1356,-211Z" fill="#a1d28e" stroke="#a1d28e" stroke-width="1.51"/><path d="M1171,-244L1227,-94L1356,-211Z" fill="#a4d595" stroke="#a4d595" stroke-width="1.51"/><path d="M1209,1045L1283,1107L1303,975Z" fill="#2d914d" stroke="#2d914d" stroke-width="1.51"/><path d="M1304,-80L1227,-94L1328,48Z" fill="#9dd187" stroke="#9dd187" stroke-width="1.51"/><path d="M1227,-94L1185,92L1328,48Z" fill="#9bd286" stroke="#9bd286" stroke-width="1.51"/><path d="M1328,244L1213,233L1329,355Z" fill="#80c576" stroke="#80c576" stroke-width="1.51"/><path d="M1214,712L1217,890L1332,832Z" fill="#3da559" stroke="#3da559" stroke-width="1.51"/><path d="M1213,233L1184,424L1329,355Z" fill="#7cc576" stroke="#7cc576" stroke-width="1.51"/><path d="M1197,499L1214,712L1296,532Z" fill="#5bb769" stroke="#5bb769" stroke-width="1.51"/><path d="M1217,890L1209,1045L1303,975Z" fill="#339750" stroke="#339750" stroke-width="1.51"/><path d="M1209,1045L1234,1161L1283,1107Z" fill="#2b8d4c" stroke="#2b8d4c" stroke-width="1.51"/><path d="M1024,865L982,989L1209,1045Z" fill="#459f58" stroke="#459f58" stroke-width="1.51"/><path d="M1037,273L1184,424L1213,233Z" fill="#87ca7c" stroke="#87ca7c" stroke-width="1.51"/><path d="M1197,499L1027,531L1214,712Z" fill="#63bb6d" stroke="#63bb6d" stroke-width="1.51"/><path d="M1027,531L1013,675L1214,712Z" fill="#61ba6c" stroke="#61ba6c" stroke-width="1.51"/><path d="M1214,712L1024,865L1217,890Z" fill="#46a85d" stroke="#46a85d" stroke-width="1.51"/><path d="M1024,865L1209,1045L1217,890Z" fill="#409e56" stroke="#409e56" stroke-width="1.51"/><path d="M1062,53L1185,92L1227,-94Z" fill="#a2d58a" stroke="#a2d58a" stroke-width="1.51"/><path d="M1039,-9L1062,53L1227,-94Z" fill="#a9d98e" stroke="#a9d98e" stroke-width="1.51"/><path d="M1209,1045L1018,1121L1234,1161Z" fill="#349150" stroke="#349150" stroke-width="1.51"/><path d="M1018,1121L1201,1237L1234,1161Z" fill="#328d4e" stroke="#328d4e" stroke-width="1.51"/><path d="M1171,-244L1075,-262L1227,-94Z" fill="#acd99b" stroke="#acd99b" stroke-width="1.51"/><path d="M1075,-262L1039,-9L1227,-94Z" fill="#aedb96" stroke="#aedb96" stroke-width="1.51"/><path d="M1185,92L1037,273L1213,233Z" fill="#93cf82" stroke="#93cf82" stroke-width="1.51"/><path d="M1013,675L1024,865L1214,712Z" fill="#52b264" stroke="#52b264" stroke-width="1.51"/><path d="M1037,273L1017,394L1184,424Z" fill="#86cb7c" stroke="#86cb7c" stroke-width="1.51"/><path d="M1062,53L1037,273L1185,92Z" fill="#9ed587" stroke="#9ed587" stroke-width="1.51"/><path d="M982,989L1018,1121L1209,1045Z" fill="#409855" stroke="#409855" stroke-width="1.51"/><path d="M1018,1121L1010,1316L1201,1237Z" fill="#388b50" stroke="#388b50" stroke-width="1.51"/><path d="M1184,424L1027,531L1197,499Z" fill="#71c173" stroke="#71c173" stroke-width="1.51"/><path d="M1017,394L1027,531L1184,424Z" fill="#7bc678" stroke="#7bc678" stroke-width="1.51"/><path d="M146,1289L-151,1329L450,1345Z" fill="#7b9e6b" stroke="#7b9e6b" stroke-width="1.51"/><path d="M1013,675L900,689L1024,865Z" fill="#5db76a" stroke="#5db76a" stroke-width="1.51"/><path d="M912,265L1037,273L1062,53Z" fill="#9fd688" stroke="#9fd688" stroke-width="1.51"/><path d="M859,42L912,265L1062,53Z" fill="#acdc8f" stroke="#acdc8f" stroke-width="1.51"/><path d="M838,-111L1039,-9L1075,-262Z" fill="#b8e19c" stroke="#b8e19c" stroke-width="1.51"/><path d="M833,-222L838,-111L1075,-262Z" fill="#bfe4a7" stroke="#bfe4a7" stroke-width="1.51"/><path d="M472,-261L594,-206L833,-222Z" fill="#d7efb4" stroke="#d7efb4" stroke-width="1.51"/><path d="M1039,-9L859,42L1062,53Z" fill="#afdd92" stroke="#afdd92" stroke-width="1.51"/><path d="M543,1296L450,1345L858,1324Z" fill="#5e935c" stroke="#5e935c" stroke-width="1.51"/><path d="M836,1137L858,1324L1010,1316Z" fill="#488f55" stroke="#488f55" stroke-width="1.51"/><path d="M898,533L900,689L1013,675Z" fill="#6fc173" stroke="#6fc173" stroke-width="1.51"/><path d="M836,1137L1010,1316L1018,1121Z" fill="#449356" stroke="#449356" stroke-width="1.51"/><path d="M900,689L839,870L1024,865Z" fill="#5eb468" stroke="#5eb468" stroke-width="1.51"/><path d="M1017,394L898,533L1027,531Z" fill="#7ec87a" stroke="#7ec87a" stroke-width="1.51"/><path d="M898,533L1013,675L1027,531Z" fill="#72c375" stroke="#72c375" stroke-width="1.51"/><path d="M895,357L1017,394L1037,273Z" fill="#90d082" stroke="#90d082" stroke-width="1.51"/><path d="M912,265L895,357L1037,273Z" fill="#98d486" stroke="#98d486" stroke-width="1.51"/><path d="M838,-111L859,42L1039,-9Z" fill="#b9e297" stroke="#b9e297" stroke-width="1.51"/><path d="M895,357L898,533L1017,394Z" fill="#89ce7f" stroke="#89ce7f" stroke-width="1.51"/><path d="M982,989L836,1137L1018,1121Z" fill="#4b9c5a" stroke="#4b9c5a" stroke-width="1.51"/><path d="M839,870L982,989L1024,865Z" fill="#54a961" stroke="#54a961" stroke-width="1.51"/><path d="M839,870L846,973L982,989Z" fill="#58a860" stroke="#58a860" stroke-width="1.51"/><path d="M846,973L836,1137L982,989Z" fill="#53a25d" stroke="#53a25d" stroke-width="1.51"/><path d="M21,1293L-151,1329L146,1289Z" fill="#81a373" stroke="#81a373" stroke-width="1.51"/><path d="M718,1261L543,1296L858,1324Z" fill="#58925a" stroke="#58925a" stroke-width="1.51"/><path d="M836,1137L718,1261L858,1324Z" fill="#519459" stroke="#519459" stroke-width="1.51"/><path d="M758,45L760,224L859,42Z" fill="#b9e295" stroke="#b9e295" stroke-width="1.51"/><path d="M895,357L681,359L898,533Z" fill="#94d284" stroke="#94d284" stroke-width="1.51"/><path d="M681,359L700,587L898,533Z" fill="#91d082" stroke="#91d082" stroke-width="1.51"/><path d="M700,587L709,653L898,533Z" fill="#83ca7c" stroke="#83ca7c" stroke-width="1.51"/><path d="M739,860L839,870L900,689Z" fill="#67b76b" stroke="#67b76b" stroke-width="1.51"/><path d="M709,653L739,860L900,689Z" fill="#71c172" stroke="#71c172" stroke-width="1.51"/><path d="M898,533L709,653L900,689Z" fill="#7ac677" stroke="#7ac677" stroke-width="1.51"/><path d="M760,224L895,357L912,265Z" fill="#a2d889" stroke="#a2d889" stroke-width="1.51"/><path d="M859,42L760,224L912,265Z" fill="#aedd8f" stroke="#aedd8f" stroke-width="1.51"/><path d="M838,-111L740,-30L859,42Z" fill="#c2e59b" stroke="#c2e59b" stroke-width="1.51"/><path d="M594,-206L702,-173L833,-222Z" fill="#d0ecae" stroke="#d0ecae" stroke-width="1.51"/><path d="M760,224L681,359L895,357Z" fill="#a5da8b" stroke="#a5da8b" stroke-width="1.51"/><path d="M-43,-224L244,-197L472,-261Z" fill="#f2fac3" stroke="#f2fac3" stroke-width="1.51"/><path d="M772,955L711,1158L836,1137Z" fill="#5ba25f" stroke="#5ba25f" stroke-width="1.51"/><path d="M711,1158L718,1261L836,1137Z" fill="#589b5c" stroke="#589b5c" stroke-width="1.51"/><path d="M839,870L772,955L846,973Z" fill="#5fac63" stroke="#5fac63" stroke-width="1.51"/><path d="M772,955L836,1137L846,973Z" fill="#5aa560" stroke="#5aa560" stroke-width="1.51"/><path d="M740,-30L758,45L859,42Z" fill="#c0e59a" stroke="#c0e59a" stroke-width="1.51"/><path d="M833,-222L702,-173L838,-111Z" fill="#c9e8a8" stroke="#c9e8a8" stroke-width="1.51"/><path d="M739,860L772,955L839,870Z" fill="#65b167" stroke="#65b167" stroke-width="1.51"/><path d="M702,-173L740,-30L838,-111Z" fill="#cae9a3" stroke="#cae9a3" stroke-width="1.51"/><path d="M681,359L600,439L700,587Z" fill="#9dd687" stroke="#9dd687" stroke-width="1.51"/><path d="M553,964L636,1170L711,1158Z" fill="#67a664" stroke="#67a664" stroke-width="1.51"/><path d="M709,653L629,822L739,860Z" fill="#75c072" stroke="#75c072" stroke-width="1.51"/><path d="M758,45L567,118L760,224Z" fill="#c0e597" stroke="#c0e597" stroke-width="1.51"/><path d="M567,118L638,249L760,224Z" fill="#bce495" stroke="#bce495" stroke-width="1.51"/><path d="M638,249L681,359L760,224Z" fill="#b0de90" stroke="#b0de90" stroke-width="1.51"/><path d="M739,860L553,964L772,955Z" fill="#6cb168" stroke="#6cb168" stroke-width="1.51"/><path d="M553,964L711,1158L772,955Z" fill="#67aa65" stroke="#67aa65" stroke-width="1.51"/><path d="M-43,-224L179,-191L244,-197Z" fill="#f6fcc4" stroke="#f6fcc4" stroke-width="1.51"/><path d="M629,822L553,964L739,860Z" fill="#73b76d" stroke="#73b76d" stroke-width="1.51"/><path d="M702,-173L624,-33L740,-30Z" fill="#d0eca2" stroke="#d0eca2" stroke-width="1.51"/><path d="M740,-30L624,-33L758,45Z" fill="#c9e99e" stroke="#c9e99e" stroke-width="1.51"/><path d="M624,-33L567,118L758,45Z" fill="#caea9d" stroke="#caea9d" stroke-width="1.51"/><path d="M600,439L582,544L700,587Z" fill="#98d485" stroke="#98d485" stroke-width="1.51"/><path d="M711,1158L636,1170L718,1261Z" fill="#5d9c5e" stroke="#5d9c5e" stroke-width="1.51"/><path d="M558,661L629,822L709,653Z" fill="#81c779" stroke="#81c779" stroke-width="1.51"/><path d="M636,1170L543,1296L718,1261Z" fill="#609a5e" stroke="#609a5e" stroke-width="1.51"/><path d="M594,-206L624,-33L702,-173Z" fill="#d5eeaa" stroke="#d5eeaa" stroke-width="1.51"/><path d="M700,587L558,661L709,653Z" fill="#89cc7d" stroke="#89cc7d" stroke-width="1.51"/><path d="M582,544L558,661L700,587Z" fill="#90cf81" stroke="#90cf81" stroke-width="1.51"/><path d="M638,249L600,439L681,359Z" fill="#addd8d" stroke="#addd8d" stroke-width="1.51"/><path d="M594,-206L456,-67L624,-33Z" fill="#daf0a9" stroke="#daf0a9" stroke-width="1.51"/><path d="M558,661L404,785L629,822Z" fill="#84c779" stroke="#84c779" stroke-width="1.51"/><path d="M553,964L444,1087L636,1170Z" fill="#6faa67" stroke="#6faa67" stroke-width="1.51"/><path d="M567,118L478,146L638,249Z" fill="#c6e89a" stroke="#c6e89a" stroke-width="1.51"/><path d="M478,146L414,257L638,249Z" fill="#c5e899" stroke="#c5e899" stroke-width="1.51"/><path d="M473,429L600,439L638,249Z" fill="#afde8f" stroke="#afde8f" stroke-width="1.51"/><path d="M414,257L473,429L638,249Z" fill="#bbe394" stroke="#bbe394" stroke-width="1.51"/><path d="M444,1087L543,1296L636,1170Z" fill="#6aa363" stroke="#6aa363" stroke-width="1.51"/><path d="M456,-67L567,118L624,-33Z" fill="#d4eea3" stroke="#d4eea3" stroke-width="1.51"/><path d="M470,964L553,964L629,822Z" fill="#77b76d" stroke="#77b76d" stroke-width="1.51"/><path d="M404,785L470,964L629,822Z" fill="#7fbe73" stroke="#7fbe73" stroke-width="1.51"/><path d="M278,1281L146,1289L450,1345Z" fill="#759e67" stroke="#759e67" stroke-width="1.51"/><path d="M418,700L404,785L558,661Z" fill="#8ecd7e" stroke="#8ecd7e" stroke-width="1.51"/><path d="M456,-67L478,146L567,118Z" fill="#d4eea1" stroke="#d4eea1" stroke-width="1.51"/><path d="M485,593L558,661L582,544Z" fill="#95d283" stroke="#95d283" stroke-width="1.51"/><path d="M472,-261L456,-67L594,-206Z" fill="#e0f2b3" stroke="#e0f2b3" stroke-width="1.51"/><path d="M473,429L582,544L600,439Z" fill="#a4d98b" stroke="#a4d98b" stroke-width="1.51"/><path d="M470,964L444,1087L553,964Z" fill="#77b26b" stroke="#77b26b" stroke-width="1.51"/><path d="M473,429L485,593L582,544Z" fill="#a1d789" stroke="#a1d789" stroke-width="1.51"/><path d="M444,1087L450,1345L543,1296Z" fill="#6c9e63" stroke="#6c9e63" stroke-width="1.51"/><path d="M444,1087L304,1185L450,1345Z" fill="#73a567" stroke="#73a567" stroke-width="1.51"/><path d="M485,593L418,700L558,661Z" fill="#93d082" stroke="#93d082" stroke-width="1.51"/><path d="M304,1185L278,1281L450,1345Z" fill="#74a066" stroke="#74a066" stroke-width="1.51"/><path d="M244,-197L335,-32L456,-67Z" fill="#eaf7b0" stroke="#eaf7b0" stroke-width="1.51"/><path d="M404,785L238,877L470,964Z" fill="#87c076" stroke="#87c076" stroke-width="1.51"/><path d="M244,-197L456,-67L472,-261Z" fill="#e8f6b7" stroke="#e8f6b7" stroke-width="1.51"/><path d="M300,431L286,491L473,429Z" fill="#b5e093" stroke="#b5e093" stroke-width="1.51"/><path d="M414,257L300,431L473,429Z" fill="#bce495" stroke="#bce495" stroke-width="1.51"/><path d="M456,-67L335,-32L478,146Z" fill="#ddf2a7" stroke="#ddf2a7" stroke-width="1.51"/><path d="M335,-32L326,126L478,146Z" fill="#dbf1a5" stroke="#dbf1a5" stroke-width="1.51"/><path d="M473,429L286,491L485,593Z" fill="#aadc8e" stroke="#aadc8e" stroke-width="1.51"/><path d="M286,491L418,700L485,593Z" fill="#a1d788" stroke="#a1d788" stroke-width="1.51"/><path d="M238,877L302,1017L470,964Z" fill="#84ba72" stroke="#84ba72" stroke-width="1.51"/><path d="M302,1017L444,1087L470,964Z" fill="#7cb26e" stroke="#7cb26e" stroke-width="1.51"/><path d="M326,126L414,257L478,146Z" fill="#d1ed9f" stroke="#d1ed9f" stroke-width="1.51"/><path d="M286,491L266,688L418,700Z" fill="#a2d689" stroke="#a2d689" stroke-width="1.51"/><path d="M302,1017L304,1185L444,1087Z" fill="#7caf6d" stroke="#7caf6d" stroke-width="1.51"/><path d="M326,126L264,206L414,257Z" fill="#d3eea0" stroke="#d3eea0" stroke-width="1.51"/><path d="M264,206L300,431L414,257Z" fill="#c9e99b" stroke="#c9e99b" stroke-width="1.51"/><path d="M266,688L404,785L418,700Z" fill="#95cf81" stroke="#95cf81" stroke-width="1.51"/><path d="M266,688L238,877L404,785Z" fill="#92cb7f" stroke="#92cb7f" stroke-width="1.51"/><path d="M105,248L134,431L264,206Z" fill="#d1eda1" stroke="#d1eda1" stroke-width="1.51"/><path d="M182,726L238,877L266,688Z" fill="#98cf83" stroke="#98cf83" stroke-width="1.51"/><path d="M169,496L266,688L286,491Z" fill="#aedd91" stroke="#aedd91" stroke-width="1.51"/><path d="M264,206L134,431L300,431Z" fill="#c7e89c" stroke="#c7e89c" stroke-width="1.51"/><path d="M302,1017L170,1194L304,1185Z" fill="#7eae6f" stroke="#7eae6f" stroke-width="1.51"/><path d="M244,-197L179,-191L335,-32Z" fill="#eff9b8" stroke="#eff9b8" stroke-width="1.51"/><path d="M179,-191L81,-63L335,-32Z" fill="#f1f9b6" stroke="#f1f9b6" stroke-width="1.51"/><path d="M182,146L326,126L335,-32Z" fill="#e1f3a9" stroke="#e1f3a9" stroke-width="1.51"/><path d="M81,-63L182,146L335,-32Z" fill="#e9f6af" stroke="#e9f6af" stroke-width="1.51"/><path d="M182,146L264,206L326,126Z" fill="#dbf1a5" stroke="#dbf1a5" stroke-width="1.51"/><path d="M238,877L100,1021L302,1017Z" fill="#8abb76" stroke="#8abb76" stroke-width="1.51"/><path d="M100,1021L170,1194L302,1017Z" fill="#85b473" stroke="#85b473" stroke-width="1.51"/><path d="M170,1194L278,1281L304,1185Z" fill="#7ba66c" stroke="#7ba66c" stroke-width="1.51"/><path d="M169,496L286,491L300,431Z" fill="#b8e195" stroke="#b8e195" stroke-width="1.51"/><path d="M134,431L169,496L300,431Z" fill="#bde398" stroke="#bde398" stroke-width="1.51"/><path d="M169,496L182,726L266,688Z" fill="#a6d88c" stroke="#a6d88c" stroke-width="1.51"/><path d="M170,1194L146,1289L278,1281Z" fill="#7ba46c" stroke="#7ba46c" stroke-width="1.51"/><path d="M182,146L105,248L264,206Z" fill="#dbf0a6" stroke="#dbf0a6" stroke-width="1.51"/><path d="M182,726L84,845L238,877Z" fill="#97cb81" stroke="#97cb81" stroke-width="1.51"/><path d="M84,845L100,1021L238,877Z" fill="#91c27c" stroke="#91c27c" stroke-width="1.51"/><path d="M105,248L37,333L134,431Z" fill="#d0eca2" stroke="#d0eca2" stroke-width="1.51"/><path d="M-31,528L17,743L169,496Z" fill="#b3de95" stroke="#b3de95" stroke-width="1.51"/><path d="M100,1021L21,1167L170,1194Z" fill="#86b275" stroke="#86b275" stroke-width="1.51"/><path d="M169,496L17,743L182,726Z" fill="#a9d98e" stroke="#a9d98e" stroke-width="1.51"/><path d="M17,743L84,845L182,726Z" fill="#9ed187" stroke="#9ed187" stroke-width="1.51"/><path d="M-22,39L105,248L182,146Z" fill="#e5f5ac" stroke="#e5f5ac" stroke-width="1.51"/><path d="M81,-63L-22,39L182,146Z" fill="#eef8b2" stroke="#eef8b2" stroke-width="1.51"/><path d="M-43,-224L81,-63L179,-191Z" fill="#f8fdc1" stroke="#f8fdc1" stroke-width="1.51"/><path d="M21,1167L146,1289L170,1194Z" fill="#82aa71" stroke="#82aa71" stroke-width="1.51"/><path d="M134,431L-31,528L169,496Z" fill="#bee49b" stroke="#bee49b" stroke-width="1.51"/><path d="M84,845L27,1014L100,1021Z" fill="#91bf7b" stroke="#91bf7b" stroke-width="1.51"/><path d="M21,1167L21,1293L146,1289Z" fill="#83a771" stroke="#83a771" stroke-width="1.51"/><path d="M27,1014L21,1167L100,1021Z" fill="#8cb779" stroke="#8cb779" stroke-width="1.51"/><path d="M-22,39L-42,279L105,248Z" fill="#e2f3ae" stroke="#e2f3ae" stroke-width="1.51"/><path d="M37,333L-31,528L134,431Z" fill="#c6e79f" stroke="#c6e79f" stroke-width="1.51"/><path d="M-35,-13L-22,39L81,-63Z" fill="#f3fbb9" stroke="#f3fbb9" stroke-width="1.51"/><path d="M-30,867L27,1014L84,845Z" fill="#96c481" stroke="#96c481" stroke-width="1.51"/><path d="M-42,279L37,333L105,248Z" fill="#d8efa8" stroke="#d8efa8" stroke-width="1.51"/><path d="M-43,-224L-35,-13L81,-63Z" fill="#f9fcc0" stroke="#f9fcc0" stroke-width="1.51"/><path d="M17,743L-30,867L84,845Z" fill="#9dcd87" stroke="#9dcd87" stroke-width="1.51"/><path d="M-43,-224L-132,-157L-35,-13Z" fill="#fafdc8" stroke="#fafdc8" stroke-width="1.51"/><path d="M-129,74L-42,279L-22,39Z" fill="#eaf7b7" stroke="#eaf7b7" stroke-width="1.51"/><path d="M-31,528L-146,712L17,743Z" fill="#acda98" stroke="#acda98" stroke-width="1.51"/><path d="M-151,1329L21,1293L21,1167Z" fill="#83a777" stroke="#83a777" stroke-width="1.51"/><path d="M-185,1103L21,1167L27,1014Z" fill="#8cb67f" stroke="#8cb67f" stroke-width="1.51"/><path d="M-180,1008L-185,1103L27,1014Z" fill="#90ba85" stroke="#90ba85" stroke-width="1.51"/><path d="M-158,440L-31,528L37,333Z" fill="#c8e8a6" stroke="#c8e8a6" stroke-width="1.51"/><path d="M-42,279L-158,440L37,333Z" fill="#d2ecab" stroke="#d2ecab" stroke-width="1.51"/><path d="M-112,854L-30,867L17,743Z" fill="#9dcd8c" stroke="#9dcd8c" stroke-width="1.51"/><path d="M-185,1103L-151,1329L21,1167Z" fill="#87ad7e" stroke="#87ad7e" stroke-width="1.51"/><path d="M-30,867L-180,1008L27,1014Z" fill="#94bf84" stroke="#94bf84" stroke-width="1.51"/><path d="M-112,854L-180,1008L-30,867Z" fill="#98c58a" stroke="#98c58a" stroke-width="1.51"/><path d="M-146,712L-112,854L17,743Z" fill="#a2d292" stroke="#a2d292" stroke-width="1.51"/><path d="M-129,74L-169,290L-42,279Z" fill="#e2f3b6" stroke="#e2f3b6" stroke-width="1.51"/><path d="M-169,290L-158,440L-42,279Z" fill="#d4eeb1" stroke="#d4eeb1" stroke-width="1.51"/><path d="M-132,-157L-171,-33L-35,-13Z" fill="#f9fcc5" stroke="#f9fcc5" stroke-width="1.51"/><path d="M-208,484L-146,712L-31,528Z" fill="#b7e0a4" stroke="#b7e0a4" stroke-width="1.51"/><path d="M-35,-13L-129,74L-22,39Z" fill="#f1fabc" stroke="#f1fabc" stroke-width="1.51"/><path d="M-158,440L-208,484L-31,528Z" fill="#c2e5a9" stroke="#c2e5a9" stroke-width="1.51"/><path d="M-171,-33L-129,74L-35,-13Z" fill="#f3fbc1" stroke="#f3fbc1" stroke-width="1.51"/><path d="M-146,712L-180,1008L-112,854Z" fill="#9cca91" stroke="#9cca91" stroke-width="1.51"/><path d="M-171,-33L-169,290L-129,74Z" fill="#edf8bf" stroke="#edf8bf" stroke-width="1.51"/><path d="M-169,290L-208,484L-158,440Z" fill="#cdeab1" stroke="#cdeab1" stroke-width="1.51"/><path d="M-208,484L-180,1008L-146,712Z" fill="#a6d69c" stroke="#a6d69c" stroke-width="1.51"/><path d="M-171,-33L-208,484L-169,290Z" fill="#dff2ba" stroke="#dff2ba" stroke-width="1.51"/><path d="M-208,484L-185,1103L-180,1008Z" fill="#9cc994" stroke="#9cc994" stroke-width="1.51"/></svg>